# xmcd CD database file
#
# Track frame offsets:
#	150
#	26556
#	47356
#	69940
#	89140
#	110140
#	123100
#	145468
#	167524
#	192508
#	206900
#
# Disc length: 3118 seconds
#
# Revision: 0
# Processed by: cddbd v1.5.2PL0 Copyright (c) Steve Scherf et al.
# Submitted via: CDex 1.77
#
DISCID=a00c2c0b
DTITLE=Jimmy Woodster - Jimmy's Songs
DYEAR=2014
DGENRE=Blues
TTITLE0=Wish I Was A Delta Boy
TTITLE1=Just One White Blues
TTITLE2=Black Dog
TTITLE3=Cutie
TTITLE4=Rain
TTITLE5=There's Only Blues Outside
TTITLE6=Cold Lat Tunes
TTITLE7=Road, Be My Wife
TTITLE8=Hoodoo Voodoo Doll
TTITLE9=Straight Lines
TTITLE10=Moving Downstream
EXTD=YEAR: 2014
EXTT0=
EXTT1=
EXTT2=
EXTT3=
EXTT4=
EXTT5=
EXTT6=
EXTT7=
EXTT8=
EXTT9=
EXTT10=
PLAYORDER=
